HIERARCHY
ROOT joint_Root
{
	OFFSET 0.0 0.0 0.0
	CHANNELS 6 Xposition Yposition Zposition Zrotation Xrotation Yrotation 
	JOINT Hips
	{
		OFFSET -0.726466 93.3139 -2.00062
		CHANNELS 6 Xposition Yposition Zposition Zrotation Xrotation Yrotation 
		JOINT Spine
		{
			OFFSET 15.7357 0.0 0.0
			CHANNELS 6 Xposition Yposition Zposition Zrotation Xrotation Yrotation 
			JOINT Chest
			{
				OFFSET 8.98455 -0.406207 0.0
				CHANNELS 6 Xposition Yposition Zposition Zrotation Xrotation Yrotation 
				JOINT Neck
				{
					OFFSET 16.3773 0.0 0.0
					CHANNELS 6 Xposition Yposition Zposition Zrotation Xrotation Yrotation 
					JOINT Head
					{
						OFFSET 6.45672 0.0 0.0
						CHANNELS 6 Xposition Yposition Zposition Zrotation Xrotation Yrotation 
						End Site
						{
							OFFSET 0.0 0.0 0.0
						}
					}
				}
				JOINT Shoulder_L
				{
					OFFSET 12.9942 -0.242716 4.98039
					CHANNELS 6 Xposition Yposition Zposition Zrotation Xrotation Yrotation 
					JOINT UpperArm_L
					{
						OFFSET 5.34809 0.0 0.0
						CHANNELS 6 Xposition Yposition Zposition Zrotation Xrotation Yrotation 
						JOINT LowerArm_L
						{
							OFFSET 24.3286 1.87007e-05 0.0
							CHANNELS 6 Xposition Yposition Zposition Zrotation Xrotation Yrotation 
							JOINT Hand_L
							{
								OFFSET 22.2916 0.0 0.0
								CHANNELS 6 Xposition Yposition Zposition Zrotation Xrotation Yrotation 
								End Site
								{
									OFFSET 0.0 0.0 0.0
								}
							}
						}
					}
				}
				JOINT Shoulder_R
				{
					OFFSET 12.9945 -0.242716 -4.98039
					CHANNELS 6 Xposition Yposition Zposition Zrotation Xrotation Yrotation 
					JOINT UpperArm_R
					{
						OFFSET -5.34813 0.0 0.0
						CHANNELS 6 Xposition Yposition Zposition Zrotation Xrotation Yrotation 
						JOINT LowerArm_R
						{
							OFFSET -24.3289 0.000322201 0.0
							CHANNELS 6 Xposition Yposition Zposition Zrotation Xrotation Yrotation 
							JOINT Hand_R
							{
								OFFSET -22.2915 -0.000108084 0.0
								CHANNELS 6 Xposition Yposition Zposition Zrotation Xrotation Yrotation 
								End Site
								{
									OFFSET 0.0 0.0 0.0
								}
							}
						}
					}
				}
			}
		}
		JOINT UpperLeg_L
		{
			OFFSET -2.19248 -6.46944 0.0
			CHANNELS 6 Xposition Yposition Zposition Zrotation Xrotation Yrotation 
			JOINT LowerLeg_L
			{
				OFFSET 39.0811 0.0 -1.23785e-05
				CHANNELS 6 Xposition Yposition Zposition Zrotation Xrotation Yrotation 
				JOINT Foot_L
				{
					OFFSET 40.9854 0.0 -1.26872e-05
					CHANNELS 6 Xposition Yposition Zposition Zrotation Xrotation Yrotation 
					JOINT Toes_L
					{
						OFFSET 11.7543 0.0 0.0
						CHANNELS 6 Xposition Yposition Zposition Zrotation Xrotation Yrotation 
						End Site
						{
							OFFSET 0.0 0.0 0.0
						}
					}
				}
			}
		}
		JOINT UpperLeg_R
		{
			OFFSET -2.19251 6.46944 0.0
			CHANNELS 6 Xposition Yposition Zposition Zrotation Xrotation Yrotation 
			JOINT LowerLeg_R
			{
				OFFSET -39.0811 -0.00228153 -0.0401928
				CHANNELS 6 Xposition Yposition Zposition Zrotation Xrotation Yrotation 
				JOINT Foot_R
				{
					OFFSET -40.9854 0.0 0.0
					CHANNELS 6 Xposition Yposition Zposition Zrotation Xrotation Yrotation 
					JOINT Toes_R
					{
						OFFSET -11.7543 0.0 0.0
						CHANNELS 6 Xposition Yposition Zposition Zrotation Xrotation Yrotation 
						End Site
						{
							OFFSET 0.0 0.0 0.0
						}
					}
				}
			}
		}
	}
}
MOTION
Frames:	4
Frame Time:	0.0333333
0.000000 0.000000 0.000000 0.000000 0.000000 -0.000000 -0.338632 92.178200 -0.020438 88.151500 -0.704606 3.987990 15.735700 0.000005 -0.000001 82.640400 85.582500 -82.151400 8.984550 -0.406207 -0.000000 1.001630 -1.160130 0.987369 16.377300 -0.000001 -0.000001 1.171620 -2.276390 0.314302 6.456720 -0.000001 -0.000000 4.264730 -2.166390 -0.393542 12.994200 -0.242716 4.980390 -90.121100 0.399580 -73.141400 5.348090 -0.000007 -0.000001 -66.574300 40.971200 -17.042300 24.328600 0.000019 0.000005 1.773080 4.182140 -22.999100 22.291600 -0.000001 0.000005 2.358670 5.475500 -5.578060 12.994500 -0.242716 -4.980390 88.163400 6.262200 -73.618400 -5.348130 -0.000001 -0.000004 -65.151000 39.045300 -17.224500 -24.328900 0.000322 -0.000009 3.249670 9.578940 -18.845500 -22.291500 -0.000108 -0.000004 4.804500 5.373240 -2.085730 -2.192480 -6.469440 -0.000000 -175.903000 -6.392640 -2.080990 39.081100 -0.000007 -0.000012 -0.102908 0.241174 23.107800 40.985400 -0.000006 -0.000013 -0.089228 2.702920 -67.258500 11.754300 -0.000000 0.000003 -0.000037 -0.000440 -16.594700 -2.192510 6.469440 -0.000001 179.214000 14.870800 -178.819000 -39.081100 -0.002282 -0.040193 -0.000258 0.010137 19.451000 -40.985400 0.000008 0.000006 4.152870 5.846960 -67.073900 -11.754300 -0.000006 -0.000006 -0.006011 -0.070937 -19.460100
0.000000 0.000000 0.000000 0.000000 0.000000 -0.000000 -0.358918 92.166200 -0.018061 88.179600 -0.647121 4.215180 15.735700 0.000005 -0.000001 82.608300 85.554200 -82.157200 8.984550 -0.406207 -0.000000 1.056800 -1.169860 0.912196 16.377300 -0.000001 -0.000001 1.056620 -2.334360 0.286587 6.456720 -0.000001 -0.000000 4.263910 -2.193340 -0.281102 12.994200 -0.242716 4.980390 -90.176500 0.588816 -73.315700 5.348090 -0.000007 -0.000001 -64.715500 40.082700 -18.308200 24.328600 0.000019 0.000005 2.332410 5.218050 -24.124400 22.291600 -0.000001 0.000005 1.020100 5.479180 -5.717400 12.994500 -0.242716 -4.980390 88.195800 6.222940 -73.796500 -5.348130 -0.000001 -0.000004 -64.214100 38.262800 -18.017800 -24.328900 0.000322 -0.000009 3.577350 9.617900 -20.520800 -22.291500 -0.000108 -0.000004 2.605970 5.374160 -2.117230 -2.192480 -6.469440 -0.000000 -175.902000 -6.309460 -1.878610 39.081100 -0.000007 -0.000012 -0.102375 0.239325 23.159600 40.985400 -0.000006 -0.000013 -0.097196 2.706730 -67.288400 11.754300 -0.000000 0.000003 -0.000041 -0.000478 -16.596200 -2.192510 6.469440 -0.000001 179.141000 14.876300 -178.623000 -39.081100 -0.002282 -0.040193 0.000254 0.008636 19.556900 -40.985400 0.000008 0.000006 4.185410 5.774900 -67.144700 -11.754300 -0.000006 -0.000006 -0.005995 -0.070787 -19.454000
0.000000 0.000000 0.000000 0.000000 0.000000 -0.000000 -0.391702 92.155400 -0.085500 88.177900 -0.563952 4.367290 15.735700 0.000005 -0.000001 82.383100 85.542200 -81.962700 8.984550 -0.406207 -0.000000 1.075660 -1.205780 0.851527 16.377300 -0.000001 -0.000001 0.917623 -2.406240 0.235357 6.456720 -0.000001 -0.000000 4.449320 -2.316390 -0.183170 12.994200 -0.242716 4.980390 -90.243300 0.819954 -73.472500 5.348090 -0.000007 -0.000001 -61.612600 38.164400 -20.577700 24.328600 0.000019 0.000005 2.999180 6.101420 -26.238400 22.291600 -0.000001 0.000005 0.088705 5.474030 -5.521500 12.994500 -0.242716 -4.980390 88.203500 6.270810 -73.978400 -5.348130 -0.000001 -0.000004 -62.161300 36.888200 -19.887900 -24.328900 0.000322 -0.000009 3.846120 9.188100 -22.838600 -22.291500 -0.000108 -0.000004 0.957831 5.393710 -2.734580 -2.192480 -6.469440 -0.000000 -175.851000 -6.347000 -1.849440 39.081100 -0.000007 -0.000012 -0.103692 0.240951 23.284400 40.985400 -0.000006 -0.000013 -0.096818 2.805010 -67.290000 11.754300 -0.000000 0.000003 -0.000033 -0.000393 -16.592900 -2.192510 6.469440 -0.000001 179.147000 14.876500 -178.577000 -39.081100 -0.002282 -0.040193 -0.000527 0.010755 19.692100 -40.985400 0.000008 0.000006 4.202890 5.683810 -67.173200 -11.754300 -0.000006 -0.000006 -0.006082 -0.071576 -19.486200
0.000000 0.000000 0.000000 0.000000 0.000000 -0.000000 -0.428679 92.145100 -0.212841 88.176800 -0.567300 4.578230 15.735700 0.000005 -0.000001 82.388200 85.532700 -81.995000 8.984550 -0.406207 -0.000000 1.094470 -1.205880 0.797366 16.377300 -0.000001 -0.000001 0.961525 -2.449300 0.208936 6.456720 -0.000001 -0.000000 4.615470 -2.444050 -0.203273 12.994200 -0.242716 4.980390 -90.239200 0.811973 -73.588000 5.348090 -0.000007 -0.000001 -58.714600 34.033400 -23.118100 24.328600 0.000019 0.000005 3.444700 6.244200 -28.960900 22.291600 -0.000001 0.000005 0.110372 5.475130 -5.563140 12.994500 -0.242716 -4.980390 88.198500 6.317130 -74.047400 -5.348130 -0.000001 -0.000004 -59.205500 34.258800 -22.916200 -24.328900 0.000322 -0.000009 4.241660 8.797530 -25.875300 -22.291500 -0.000108 -0.000004 0.524093 5.403120 -3.038850 -2.192480 -6.469440 -0.000000 -175.802000 -6.347290 -1.797810 39.081100 -0.000007 -0.000012 -0.105265 0.242917 23.429000 40.985400 -0.000006 -0.000013 -0.113052 2.831640 -67.271900 11.754300 -0.000000 0.000003 -0.000041 -0.000474 -16.596000 -2.192510 6.469440 -0.000001 179.119000 14.868900 -178.523000 -39.081100 -0.002282 -0.040193 -0.007075 0.028818 19.837600 -40.985400 0.000008 0.000006 4.005840 5.709580 -67.132300 -11.754300 -0.000006 -0.000006 -0.005620 -0.067347 -19.313700
